<svg width="100%" height="100%" viewBox="0 0 334 91" fill="none" xmlns="http://www.w3.org/2000/svg">
<rect width="333.333" height="90" transform="translate(0 1)" fill="black"/>
<g clip-path="url(#clip0)">
<path d="M62.9917 32.1501H75.2563V21.6584H50V71.0001H76.5708V60.3001H62.9917V32.1501Z" fill="white"/>
<path d="M93.348 21H80.9792V71H93.348V49.8813H98.2813V40.0125H93.348V21Z" fill="white"/>
<path d="M147.85 21H135.481V71H147.85V21Z" fill="white"/>
<path d="M123.017 21H110.081V34.4812H102.596V70.9562H114.917V45.0542H118.183V70.9562H130.502V34.4812H123.017V21Z" fill="white"/>
<path d="M262.083 41.9875H259.913H259.823V33.8938H248.446V41.9875H244.658V33.8938H233.281V41.9875H230.967V51.8563H262.083V41.9875Z" fill="white"/>
<path d="M262.083 21.5271H230.967V31.4604H262.083V21.5271Z" fill="white"/>
<path d="M244.65 54.8167H232.281V71L278.398 70.9333V61.0666H244.65V54.8167Z" fill="white"/>
<path d="M278.398 32.7771V21H266.031V54.8167H278.398V42.6438H283.333V32.7771H278.398Z" fill="white"/>
<path d="M215.56 40.6708H212.962V21H201.1024V70.9979H212.962V50.5396H215.56V71H226.821V21H215.56V40.6708Z" fill="white"/>
<path d="M162.688 31.6292H174.033V35.5209H171.123L162.856 42.9646V71H175.354V47.0834H184.506V71H197.004V42.9646L188.737 35.5209H185.827V31.6292H197.173V21.6167H162.688V31.6292Z" fill="white"/>
</g>
<line x1="-4.37114e-08" y1="0.5" x2="333" y2="0.499971" stroke="white"/>
<line x1="-4.37114e-08" y1="90.5" x2="333" y2="90.5" stroke="white"/>
<defs>
<clipPath id="clip0">
<rect width="233.333" height="50" fill="white" transform="translate(50 21)"/>
</clipPath>
</defs>
</svg>
